Coordinates
version=1
nRows=22
nColumns=18
inDegrees=no

Units are S.I. units (second, meters, Newtons, ...)
If the header above contains a line with 'inDegrees', this indicates whether rotational values are in degrees (yes) or radians (no).

endheader
time	ground_thorax_rot_x	ground_thorax_rot_y	ground_thorax_rot_z	ground_thorax_tx	ground_thorax_ty	ground_thorax_tz	clav_prot	clav_elev	scapula_abduction	scapula_elevation	scapula_upward_rot	scapula_winging	shoulder_elv	plane_of_elev	axial_rot	elbow_flexion	pro_sup
      0.00000000	      0.39672475	     -7.11217350	      0.00234136	     -2.94951852	      0.00154667	      0.59697214	     -5.02827214	     -9.82467037	     -8.60796074	     -7.53101368	      6.94365683	      4.90031839	     96.47430745	     -0.27868251	    -18.09063402	     13.35623400	     15.44079814
      0.02000000	      0.96760722	     -8.53319514	      1.17375847	     -2.98547569	      0.00730658	      0.60586924	     -4.35427063	     -8.45014919	     -8.21274516	     -5.84934375	      6.18857275	      4.37874377	     96.80387453	      0.09803788	    -17.72186465	     12.98971591	     15.42635911
      0.04000000	      0.71549200	     -3.54402112	      0.95583695	     -3.01104874	      0.00452026	      0.59293087	     -5.90427310	     -7.76036263	    -10.87821783	     -5.36820346	      6.48322554	      4.55954146	     97.21595720	     -0.15977671	    -13.63172438	     11.66528927	     12.36200601
      0.06000000	      0.54150505	     -3.98692925	      0.62447882	     -3.04971297	      0.00208147	      0.60445727	     -5.78802871	     -7.50232247	    -10.91379117	     -4.99712507	      6.21370645	      4.51839082	     96.94203902	      0.31981568	    -13.32818636	     12.41836790	     12.06450887
      0.08000000	     -2.17098501	     -1.76263750	     -1.60066853	     -3.19426055	      0.01018323	      0.65030381	     -6.03359188	     -8.98851645	    -13.62664856	     -4.60366653	      2.02643119	      6.22124360	     98.96182378	     -6.75469286	    -16.40643774	      8.46999181	      5.92255549
      0.10000000	     -0.76702598	     -2.91236958	     -0.56867242	     -3.06020841	      0.00978077	      0.61428237	     -5.46688038	     -9.70433338	    -11.50348550	     -6.01670678	      3.65470297	      5.86003037	    100.31092805	     -4.61348156	    -17.09405216	      7.61784878	      5.31543593
      0.12000000	     -0.69661231	     -2.65660821	     -0.73131489	     -3.12569071	      0.00806449	      0.62608688	     -4.98222032	     -9.32076985	    -10.56889429	     -5.73880306	      3.92683348	      5.49904085	    101.86531198	     -4.18203536	    -18.70816076	      4.50483631	      4.21671156
      0.14000000	     -0.60232882	     -3.09364999	     -2.55155639	     -3.09501440	      0.00101799	      0.61594745	     -4.93007511	    -10.27496073	    -10.37709273	     -6.61536880	      3.79041194	      5.86301931	    102.59196800	     -4.42550014	    -19.83702844	      1.74141237	      3.28140083
      0.16000000	     -0.45260071	     -2.85250186	     -1.94021631	     -3.09361663	      0.00273789	      0.61439179	     -4.73310812	    -10.46684203	    -10.19160060	     -6.65960862	      3.48058635	      5.95105496	    103.30165667	     -3.48134859	    -19.96683065	      1.18178260	      2.66950796
      0.18000000	     -1.44533126	     -1.48390155	     -1.70892890	     -3.09845237	      0.00547460	      0.62414642	     -2.84950464	    -17.64686397	    -14.56813583	     -5.71448173	    -13.81697969	     11.86258143	    120.65587003	     -0.50302799	    -21.14042602	     -1.24770839	    -10.01720194
      0.20000000	     -1.75541424	     -1.32613091	     -2.78327119	     -3.10764984	      0.00219769	      0.62503697	     -3.34167342	    -17.76090216	    -15.11203958	     -6.31163324	    -12.95175161	     11.97324430	    119.47913854	     -0.64242580	    -19.57297255	     -1.53617379	    -10.90496535
      0.22000000	     -1.96703867	     -1.50723631	     -3.03751748	     -3.11134663	      0.00192705	      0.62811158	     -3.29926391	    -17.96294979	    -14.75423824	     -6.91346594	    -12.18505330	     11.93953836	    118.76557987	     -0.67252137	    -18.20346871	     -2.37280655	    -11.30449422
      0.24000000	     -1.28720256	     -2.31106376	     -1.16219027	     -3.08717565	      0.00702241	      0.62351629	     -2.88106363	    -16.04465287	    -13.19579889	     -5.98079748	     -9.89696995	     10.52117740	    116.72472940	     -1.58412027	    -17.13091723	     -3.19997744	    -12.20915829
      0.26000000	     -1.39665370	     -2.06910099	     -1.46741637	     -3.07792617	      0.00531290	      0.62100247	     -2.82753064	    -16.08608849	    -13.10367995	     -6.01528739	     -9.90877315	     10.51910872	    116.69036880	     -1.40855419	    -17.14584394	     -3.12561504	    -12.21109133
      0.28000000	     -1.04158401	     -3.77990682	     -1.10740513	     -3.07914824	      0.00664059	      0.62601225	     -3.04055313	    -15.98572421	    -13.38656762	     -6.03107543	     -9.68987825	     10.51623033	    116.11582065	      0.29782171	    -17.71903762	     -1.12376206	    -12.57940310
      0.30000000	     -1.03665382	     -2.77873774	     -1.62835910	     -3.08443137	      0.00349349	      0.62172068	     -4.16692852	    -15.00749509	    -14.74238029	     -5.82893095	     -8.15025591	     10.21565066	    114.51336312	      0.59604991	    -19.61681202	     -0.56060808	    -14.19100525
      0.32000000	     -1.09771799	     -2.26609847	     -1.91385081	     -3.07739399	      0.00192052	      0.61906027	     -4.04383649	    -15.09004109	    -14.55239773	     -5.87541064	     -8.21711812	     10.22026043	    114.39137075	      0.80525654	    -19.64896560	     -0.54186506	    -14.19566339
      0.34000000	     -1.23416086	     -0.31707782	     -2.01261988	     -3.07426584	      0.00035544	      0.61346372	     -4.28130957	    -15.48178390	    -14.86029732	     -6.38195677	     -8.05226840	     10.44012766	    115.37970453	     -0.70358826	    -19.88703178	     -1.89566735	    -14.35539682
      0.36000000	     -1.76564661	      0.03067738	     -2.10546298	     -3.07278358	      0.00073535	      0.61846210	     -4.39001351	    -16.77594733	    -15.74973729	     -6.86480122	     -9.87399140	     11.39002814	    116.89437258	     -1.10634429	    -19.16449417	     -1.59122269	    -14.81793083
      0.38000000	     -1.58340111	     -0.28816873	     -1.69117937	     -3.08967656	      0.00464815	      0.61979484	     -4.41707693	    -16.74596930	    -15.85396229	     -6.76745805	    -10.00983025	     11.40876363	    116.81510550	     -1.31153404	    -19.16329417	     -1.69484310	    -14.81946721
      0.40000000	     -1.40395199	     -0.94349194	     -2.28378458	     -3.10191374	      0.00179864	      0.62142280	     -3.63340355	    -16.41547641	    -14.79346336	     -6.02670003	    -10.68959530	     11.09922317	    117.88771612	     -0.85756549	    -20.36401487	     -2.75707434	    -15.13852511
      0.42000000	     -1.39406428	     -3.31870227	     -1.95573858	     -3.08661614	      0.00191789	      0.62855155	     -3.63993005	    -16.26253669	    -14.82464303	     -5.84691123	    -10.72452811	     11.03905004	    117.15439905	      0.95837094	    -20.29886411	     -0.88757025	    -15.17112431
